<?xml version="1.0" encoding="utf-8"?>
<!-- Generator: Adobe Illustrator 24.2.1, SVG Export Plug-In . SVG Version: 6.00 Build 0)  -->
<svg version="1.1" id="Capa_1" xmlns="http://www.w3.org/2000/svg" xmlns:xlink="http://www.w3.org/1999/xlink" x="0px" y="0px"
	 viewBox="0 0 24 24" style="enable-background:new 0 0 24 24;" xml:space="preserve">
<style type="text/css">
	.st0{fill:none;}
	.st1{fill:#FFFFFF;}
</style>
<rect class="st0" width="24" height="24"/>
<g>
	<g>
		<path class="st1" d="M12,5.8c2.9,0,5.3,1.6,7.1,3.4c0.8,0.9,1.6,1.8,2.3,2.8c-0.1,0.1-0.2,0.3-0.3,0.4c-0.5,0.7-1.1,1.5-2,2.4
			c-0.2,0.2-0.5,0.4-0.7,0.7l1,1c2.3-2.1,3.6-4.4,3.6-4.4s-4.2-7.6-11-7.6c-1.3,0-2.6,0.3-3.8,0.8l1.1,1.1C10.1,6,11.1,5.9,12,5.8z"
			/>
		<path class="st1" d="M7.5,10.4c-0.4,1-0.4,2.2,0,3.2c0.9,2.5,3.6,3.8,6.1,2.9l-1.1-1.1c-0.3,0-0.6,0-1,0c-1.9-0.3-3.2-2-2.9-3.9
			L7.5,10.4z"/>
		<path class="st1" d="M16.5,13.6c0.9-2.5-0.4-5.2-2.9-6.1c-1-0.4-2.2-0.4-3.2,0l1.1,1.1c1.9-0.3,3.6,1,3.9,2.9c0,0.3,0,0.6,0,1
			L16.5,13.6z"/>
		<path class="st1" d="M12,18.2c-2.9,0-5.3-1.6-7.1-3.4c-0.9-0.9-1.5-1.7-2-2.4L2.7,12c0.7-1,1.4-1.9,2.3-2.8C5.2,9,5.4,8.8,5.6,8.5
			l-1-1C2.3,9.6,1.1,12,1.1,12s4.1,7.5,10.9,7.5c1.3,0,2.6-0.3,3.8-0.8l-1.1-1.1C13.9,18,13,18.2,12,18.2z"/>
		<path class="st1" d="M5.6,8.5L5.6,8.5L5.6,8.5z"/>
		
			<rect x="11.3" y="0.4" transform="matrix(0.7071 -0.7071 0.7071 0.7071 -4.9706 11.9999)" class="st1" width="1.4" height="23.2"/>
	</g>
</g>
</svg>
