<?xml version="1.0" encoding="utf-8"?>
<!-- Generator: Adobe Illustrator 24.2.1, SVG Export Plug-In . SVG Version: 6.00 Build 0)  -->
<svg version="1.1" id="Capa_1" xmlns="http://www.w3.org/2000/svg" xmlns:xlink="http://www.w3.org/1999/xlink" x="0px" y="0px"
	 viewBox="0 0 24 24" style="enable-background:new 0 0 24 24;" xml:space="preserve">
<style type="text/css">
	.st0{fill:none;}
	.st1{fill:#FFFFFF;}
</style>
<rect class="st0" width="24" height="24"/>
<g>
	<g>
		<path class="st1" d="M12,4.5C5.2,4.5,1.1,12,1.1,12s4.1,7.5,10.9,7.5S22.9,12,22.9,12S18.8,4.5,12,4.5z M19.1,14.8
			c-1.8,1.8-4.2,3.4-7.1,3.4s-5.3-1.6-7.1-3.4C4.1,13.9,3.3,13,2.7,12l0,0c0.7-1,1.4-1.9,2.3-2.8c1.7-1.8,4.1-3.4,7-3.4
			s5.3,1.6,7.1,3.4c0.8,0.9,1.6,1.8,2.3,2.8c-0.1,0.1-0.2,0.3-0.3,0.4C20.6,13,19.9,13.9,19.1,14.8z"/>
		<path class="st1" d="M12,7.2c-2.6,0-4.8,2.1-4.8,4.8s2.1,4.8,4.8,4.8s4.8-2.1,4.8-4.8S14.6,7.2,12,7.2z M12,15.4
			c-1.9,0-3.4-1.5-3.4-3.4s1.5-3.4,3.4-3.4s3.4,1.5,3.4,3.4S13.9,15.4,12,15.4z"/>
	</g>
</g>
</svg>
