<svg xmlns="http://www.w3.org/2000/svg" viewBox="0 0 68.63 68.63"><defs><style>.cls-1{fill:none;}.cls-2{fill:#161c27;}</style></defs><g id="Capa_2" data-name="Capa 2"><g id="Capa_2-2" data-name="Capa 2"><rect class="cls-1" width="68.63" height="68.63"/><g id="Capa_2-2-2" data-name="Capa 2-2"><path class="cls-2" d="M14.91,24.32a21,21,0,0,1,4-5.59,21.31,21.31,0,0,1,11.23-6.16,21.51,21.51,0,0,1,19.24,5c.22.2.24.31,0,.53-1.93,1.91-3.86,3.84-5.78,5.77-.17.18-.28.19-.46,0a12.72,12.72,0,0,0-14.61-1.57,13.65,13.65,0,0,0-6.33,7.52c-.15.25-.31.09-.45,0-.54-.38-1-.8-1.56-1.21-1.36-1-2.69-2.12-4.07-3.15-.35-.26-.69-.56-1-.83C15,24.6,14.86,24.49,14.91,24.32Z"/><path class="cls-2" d="M49.47,51.18A16.07,16.07,0,0,1,46,53.74,22.21,22.21,0,0,1,33.4,56.5,22.24,22.24,0,0,1,15,44.54c0-.08-.06-.16-.1-.25a.64.64,0,0,1,.29-.46c1.21-.9,2.39-1.83,3.58-2.76,1-.76,2-1.51,2.93-2.29.12-.1.29-.34.49-.06a13.62,13.62,0,0,0,4.12,6,13,13,0,0,0,9.75,3.09,13.23,13.23,0,0,0,6.38-2.12c.21-.1.33,0,.47.15.89.71,1.77,1.42,2.68,2.11,1.19.9,2.35,1.84,3.54,2.74C49.3,50.82,49.54,50.9,49.47,51.18Z"/><path class="cls-2" d="M49.47,51.18c-1.3-1-2.6-2-3.92-3-1-.73-1.95-1.52-2.91-2.29l-.19-.13a10.8,10.8,0,0,0,3.24-3.52,11.22,11.22,0,0,0,1.12-3c.08-.32,0-.4-.33-.4H35.19c-.33,0-.45-.08-.45-.42,0-2.62,0-5.23,0-7.85,0-.33.12-.4.43-.4H55.28c.29,0,.44.06.49.38a24.66,24.66,0,0,1-2.34,15.59A18.81,18.81,0,0,1,49.69,51,1.12,1.12,0,0,1,49.47,51.18Z"/><path class="cls-2" d="M22.2,38.73c-.32,0-.49.28-.71.44-1.25.95-2.48,1.92-3.72,2.88l-2.86,2.24a19.47,19.47,0,0,1-1.69-4.43,21.09,21.09,0,0,1-.71-5.65,22.31,22.31,0,0,1,2.25-9.63c0-.08.1-.17.15-.26l5.13,4,1.79,1.39c.11.08.21.22.38.17a13.42,13.42,0,0,0-.33,7.76C22,38,22.09,38.37,22.2,38.73Z"/></g></g></g></svg>