<?xml version="1.0" encoding="utf-8"?>
<!-- Generator: Adobe Illustrator 24.2.1, SVG Export Plug-In . SVG Version: 6.00 Build 0)  -->
<svg version="1.1" id="Capa_1" xmlns="http://www.w3.org/2000/svg" xmlns:xlink="http://www.w3.org/1999/xlink" x="0px" y="0px"
	 viewBox="0 0 64 64" style="enable-background:new 0 0 64 64;" xml:space="preserve">
<style type="text/css">
	.st0{fill-rule:evenodd;clip-rule:evenodd;fill:url(#SVGID_1_);}
	.st1{fill:none;}
	.st2{fill:#0B1623;}
</style>
<linearGradient id="SVGID_1_" gradientUnits="userSpaceOnUse" x1="9.3726" y1="-1026.6274" x2="54.6274" y2="-981.3726" gradientTransform="matrix(1 0 0 -1 0 -972)">
	<stop  offset="2.793296e-03" style="stop-color:#B19FFB"/>
	<stop  offset="1" style="stop-color:#FDE0F4"/>
</linearGradient>
<circle class="st0" cx="32" cy="32" r="32"/>
<rect class="st1" width="64" height="64"/>
<g>
	<rect x="20.1" y="18.9" class="st2" width="5" height="1.3"/>
	<path class="st2" d="M45.3,20.7l-1.3-3.1h0H37h0l-1.3,3.1H15.4v25.6h33.1V20.7H45.3z M26.6,40.2c-3.8,0-6.9-3.1-6.9-6.9
		s3.1-6.9,6.9-6.9s6.9,3.1,6.9,6.9S30.5,40.2,26.6,40.2z M35.3,36.9l-0.1,0.3L34,36.7l0.1-0.3c0.4-1,0.7-2.1,0.7-3.1
		c0-4.5-3.6-8.1-8.1-8.1s-8.1,3.6-8.1,8.1c0,4.4,3.6,8.1,8.1,8.2c1.1,0,2.1-0.3,3.2-0.7l0.3-0.1l0.5,1.1l-0.3,0.1
		c-1.4,0.5-2.5,0.7-3.7,0.7c-5.2,0-9.4-4.2-9.4-9.4s4.2-9.4,9.4-9.4c5.2,0,9.4,4.2,9.4,9.4C36,34.5,35.8,35.8,35.3,36.9z M44.2,27.3
		c-1.2,0-2.2-1-2.2-2.2c0-1.2,1-2.2,2.2-2.2c1.2,0,2.2,1,2.2,2.2C46.4,26.3,45.4,27.3,44.2,27.3z"/>
</g>
</svg>
