<?xml version="1.0" encoding="utf-8"?>
<!-- Generator: Adobe Illustrator 24.2.1, SVG Export Plug-In . SVG Version: 6.00 Build 0)  -->
<svg version="1.1" id="Capa_1" xmlns="http://www.w3.org/2000/svg" xmlns:xlink="http://www.w3.org/1999/xlink" x="0px" y="0px"
	 viewBox="0 0 64 64" style="enable-background:new 0 0 64 64;" xml:space="preserve">
<style type="text/css">
	.st0{fill:none;}
	.st1{fill:#0B1623;}
</style>
<rect class="st0" width="64" height="64"/>
<g>
	<g>
		<path class="st1" d="M31.9,16.3c7.3,0,13.4,4,18,8.6c2,2.3,4,4.6,5.8,7.1c-0.3,0.3-0.5,0.8-0.8,1c-1.3,1.8-2.8,3.8-5.1,6.1
			c-0.5,0.5-1.3,1-1.8,1.8l2.5,2.5c5.8-5.3,9.1-11.1,9.1-11.1S49.1,13,31.9,13c-3.3,0-6.6,0.8-9.6,2l2.8,2.8
			C27.1,16.8,29.6,16.6,31.9,16.3z"/>
		<path class="st1" d="M20.5,28c-1,2.5-1,5.6,0,8.1c2.3,6.3,9.1,9.6,15.4,7.3l-2.8-2.8c-0.8,0-1.5,0-2.5,0c-4.8-0.8-8.1-5.1-7.3-9.9
			L20.5,28z"/>
		<path class="st1" d="M43.3,36c2.3-6.3-1-13.2-7.3-15.4c-2.5-1-5.6-1-8.1,0l2.8,2.8c4.8-0.8,9.1,2.5,9.9,7.3c0,0.8,0,1.5,0,2.5
			L43.3,36z"/>
		<path class="st1" d="M31.9,47.7c-7.3,0-13.4-4-18-8.6c-2.3-2.3-3.8-4.3-5.1-6.1l-0.5-1c1.8-2.5,3.5-4.8,5.8-7.1
			c0.5-0.5,1-1,1.5-1.8l-2.5-2.5C7.3,25.9,4.3,32,4.3,32s10.4,19,27.6,19c3.3,0,6.6-0.8,9.6-2l-2.8-2.8
			C36.7,47.2,34.4,47.7,31.9,47.7z"/>
		<path class="st1" d="M15.7,23.1L15.7,23.1L15.7,23.1z"/>
		
			<rect x="30.1" y="2.7" transform="matrix(0.7071 -0.7071 0.7071 0.7071 -13.3231 31.9385)" class="st1" width="3.5" height="58.7"/>
	</g>
</g>
</svg>
