<?xml version="1.0" encoding="utf-8"?>
<!-- Generator: Adobe Illustrator 24.2.1, SVG Export Plug-In . SVG Version: 6.00 Build 0)  -->
<svg version="1.1" id="Capa_1" xmlns="http://www.w3.org/2000/svg" xmlns:xlink="http://www.w3.org/1999/xlink" x="0px" y="0px"
	 viewBox="0 0 64 64" style="enable-background:new 0 0 64 64;" xml:space="preserve">
<style type="text/css">
	.st0{fill:none;}
	.st1{fill:#0B1623;}
</style>
<rect class="st0" width="64" height="64"/>
<g>
	<rect x="13" y="11" class="st1" width="8" height="2"/>
	<path class="st1" d="M53.2,14l-2.1-5h0H40h0l-2.1,5H5.5v41h53V14H53.2z M23.4,45.1c-6.1,0-11.1-5-11.1-11.1s5-11.1,11.1-11.1
		s11.1,5,11.1,11.1S29.5,45.1,23.4,45.1z M37.3,39.8l-0.2,0.5l-1.9-0.8l0.2-0.5c0.7-1.6,1.1-3.3,1.1-5c0-7.2-5.8-13-13-13
		s-13,5.8-13,13c0,7.1,5.8,13,13,13.1c1.7,0,3.4-0.4,5.1-1.1l0.4-0.1l0.8,1.8l-0.5,0.2c-2.2,0.8-4,1.1-5.9,1.1c-8.3,0-15-6.7-15-15
		s6.7-15,15-15c8.3,0,15,6.7,15,15C38.4,36,38,38,37.3,39.8z M51.5,24.5c-1.9,0-3.5-1.6-3.5-3.5s1.6-3.5,3.5-3.5S55,19.1,55,21
		S53.4,24.5,51.5,24.5z"/>
</g>
</svg>
