<?xml version="1.0" encoding="utf-8"?>
<!-- Generator: Adobe Illustrator 24.2.1, SVG Export Plug-In . SVG Version: 6.00 Build 0)  -->
<svg version="1.1" id="Capa_1" xmlns="http://www.w3.org/2000/svg" xmlns:xlink="http://www.w3.org/1999/xlink" x="0px" y="0px"
	 viewBox="0 0 64 64" style="enable-background:new 0 0 64 64;" xml:space="preserve">
<style type="text/css">
	.st0{fill:#0B1623;}
	.st1{fill:none;}
</style>
<g>
	<polygon class="st0" points="53.2,14 51.1,9 40,9 40,11 49.9,11 52,16 56.5,16 56.5,53 7.5,53 7.5,16 41,16 41,14 5.5,14 5.5,55 
		58.5,55 58.5,14 	"/>
	<path class="st0" d="M35.2,39.5l1.9,0.8l0.2-0.5c0.7-1.8,1.1-3.8,1.1-5.8c0-8.3-6.7-15-15-15s-15,6.7-15,15c0,8.3,6.7,15,15,15
		c1.9,0,3.7-0.3,5.9-1.1l0.5-0.2l-0.8-1.8L28.6,46c-1.7,0.7-3.4,1.1-5.1,1.1c-7.2-0.1-13-6-13-13.1c0-7.2,5.8-13,13-13s13,5.8,13,13
		c0,1.7-0.4,3.4-1.1,5L35.2,39.5z"/>
	<path class="st0" d="M23.5,23c-6.1,0-11,4.9-11,11s4.9,11,11,11s11-4.9,11-11S29.6,23,23.5,23z M23.5,25c5,0,9,4,9,9c0,5-4,9-9,9
		s-9-4-9-9C14.5,29,18.5,25,23.5,25z"/>
	<rect x="13" y="11" class="st0" width="8" height="2"/>
	<path class="st0" d="M55,21c0-2-1.5-3.5-3.5-3.5S48,19,48,21s1.5,3.5,3.5,3.5S55,23,55,21z M51.5,19.5c0.8,0,1.5,0.7,1.5,1.5
		s-0.7,1.5-1.5,1.5S50,21.8,50,21S50.7,19.5,51.5,19.5z"/>
</g>
<rect class="st1" width="64" height="64"/>
</svg>
