<?xml version="1.0" encoding="utf-8"?>
<!-- Generator: Adobe Illustrator 24.2.1, SVG Export Plug-In . SVG Version: 6.00 Build 0)  -->
<svg version="1.1" id="Capa_1" xmlns="http://www.w3.org/2000/svg" xmlns:xlink="http://www.w3.org/1999/xlink" x="0px" y="0px"
	 viewBox="0 0 64 64" style="enable-background:new 0 0 64 64;" xml:space="preserve">
<style type="text/css">
	.st0{fill:none;}
	.st1{fill:#00ECF2;}
</style>
<rect class="st0" width="64" height="64"/>
<g>
	<polygon class="st1" points="51.4,23.9 51.4,57.2 12.6,57.2 12.6,9.5 21.9,9.5 21.9,12.3 41.9,12.3 41.9,9.5 51.4,9.5 51.4,15.7 
		53.4,15.7 53.4,7.5 39.9,7.5 39.9,10.3 23.9,10.3 23.9,7.5 10.6,7.5 10.6,59.2 53.4,59.2 53.4,23.9 	"/>
	<rect x="25.3" y="4.8" class="st1" width="13.3" height="2"/>
	<path class="st1" d="M18.9,23.9c0,2.7,2.1,4.8,4.8,4.8c2.7,0,4.8-2.1,4.8-4.8c0-2.7-2.1-4.8-4.8-4.8C21,19.1,18.9,21.2,18.9,23.9z
		 M23.8,26.7c-1.5,0-2.8-1.3-2.8-2.8c0-1.5,1.3-2.8,2.8-2.8c1.5,0,2.8,1.3,2.8,2.8C26.5,25.5,25.3,26.7,23.8,26.7z"/>
	<path class="st1" d="M37.6,41.4c0,2.7,2.2,4.9,4.9,4.9s4.9-2.2,4.9-4.9c0-2.7-2.2-4.9-4.9-4.9S37.6,38.7,37.6,41.4z M42.6,44.3
		c-1.6,0-2.9-1.3-2.9-2.9s1.3-2.9,2.9-2.9c1.5,0,2.9,1.4,2.9,2.9C45.5,43,44.2,44.3,42.6,44.3z"/>
	<polygon class="st1" points="39,28.3 41.1,26.2 43.1,28.3 44.6,26.8 42.5,24.8 44.7,22.5 43.3,21.1 41.1,23.3 38.9,21.2 37.5,22.6 
		39.6,24.8 37.5,26.9 	"/>
	<polygon class="st1" points="35.2,32.7 28.6,44.9 30.4,45.9 37.3,33.1 38.3,35.7 40.1,34.9 38.5,30.5 37.8,29.1 32.4,32 33.2,33.8 
			"/>
	<path class="st1" d="M27.6,35.9c-2.8-2.6-2-5.2-2-5.2l0.3-0.5l-2.1-0.6l-0.1,0.5c0,0.2-1.1,4.1,2.9,7.6l-2,0.7l0.6,2l4.5-1.5
		l-0.1-5.4h-2L27.6,35.9z"/>
</g>
</svg>
