<?xml version="1.0" encoding="utf-8"?>
<!-- Generator: Adobe Illustrator 24.2.1, SVG Export Plug-In . SVG Version: 6.00 Build 0)  -->
<svg version="1.1" id="Capa_1" xmlns="http://www.w3.org/2000/svg" xmlns:xlink="http://www.w3.org/1999/xlink" x="0px" y="0px"
	 viewBox="0 0 64 64" style="enable-background:new 0 0 64 64;" xml:space="preserve">
<style type="text/css">
	.st0{fill:url(#SVGID_1_);}
	.st1{fill:#FFFFFF;}
</style>
<g>
	<g>
		<g>
			<g>
				
					<linearGradient id="SVGID_1_" gradientUnits="userSpaceOnUse" x1="0" y1="102" x2="64" y2="38" gradientTransform="matrix(1 0 0 1 0 -38)">
					<stop  offset="0" style="stop-color:#6956E7"/>
					<stop  offset="1" style="stop-color:#B19FFB"/>
				</linearGradient>
				<rect class="st0" width="64" height="64"/>
				<g>
					<g>
						<g>
							<circle class="st1" cx="32" cy="32" r="6.4"/>
						</g>
						<g>
							<g>
								<path class="st1" d="M47.5,30.9c-0.5-7.7-6.7-13.9-14.4-14.4v-5.9h-2.1v5.9c-7.7,0.5-13.9,6.7-14.4,14.4h-5.9v2.1h5.9
									c0.5,7.7,6.7,13.9,14.4,14.4v5.9h2.1v-5.9c7.7-0.5,13.9-6.7,14.4-14.4h5.9v-2.1C53.3,30.9,47.5,30.9,47.5,30.9z M45.3,33.1
									c-0.5,6.7-5.9,12-12.3,12.3c-0.3,0-0.8,0-1.1,0c-0.3,0-0.8,0-1.1,0c-6.7-0.5-12-5.9-12.3-12.3c0-0.3,0-0.8,0-1.1
									c0-0.3,0-0.8,0-1.1c0.5-6.7,5.6-11.7,12.3-12.3c0.3,0,0.8,0,1.1,0c0.3,0,0.8,0,1.1,0c6.7,0.5,12,5.9,12.3,12.3
									c0,0.3,0,0.8,0,1.1C45.3,32.3,45.3,32.8,45.3,33.1z"/>
							</g>
						</g>
					</g>
				</g>
			</g>
		</g>
	</g>
</g>
</svg>
