<?xml version="1.0" encoding="utf-8"?>
<!-- Generator: Adobe Illustrator 25.2.3, SVG Export Plug-In . SVG Version: 6.00 Build 0)  -->
<svg version="1.1" id="Capa_1" xmlns="http://www.w3.org/2000/svg" xmlns:xlink="http://www.w3.org/1999/xlink" x="0px" y="0px"
	 viewBox="0 0 64 64" style="enable-background:new 0 0 64 64;" xml:space="preserve">
<style type="text/css">
	.st0{fill:#0B1623;}
</style>
<path class="st0" d="M51.9,28.8c0-0.3-0.2-0.3-0.5-0.3c-6.2,0-12.6,0-18.7,0c-0.5,0-0.5,0-0.5,0.3c0,2.4,0,4.8,0,7.2
	c0,0.5,0.2,0.5,0.5,0.5c1.6,0,2.9,0,4.5,0c1.9,0,4,0,5.9,0c0.3,0,0.3,0,0.3,0.3c-0.3,0.8-0.6,1.9-1.1,2.7c-0.5,1.3-1.6,2.4-2.9,3.2
	c0,0,0,0,0,0c-1.6,1-3.7,1.5-5.7,1.8c-3.5,0.3-6.4-0.8-9.1-2.9C23,40,21.7,38.1,20.9,36c-0.1-0.1-0.1-0.1-0.2-0.1
	c-0.2-0.2-0.2-0.4-0.5-0.8c-0.5-2.3-0.5-4.7,0.2-7c0,0,0.1,0,0.2-0.1c1.1-2.9,3-5.3,5.9-6.9c4.3-2.4,9.9-2.2,13.6,1.3
	c0.2,0.3,0.2,0.3,0.5,0c1.8-1.8,3.4-3.4,5.3-5.3c0.3-0.2,0.3-0.2,0-0.5c-5.1-4.5-11.2-6.1-17.9-4.8c-4,0.8-7.5,2.7-10.4,5.6
	C16,19,15,20.8,13.9,22.6c-0.1,0.1-0.1,0.3-0.1,0.3c-1.3,3-2.1,5.9-2.1,9.1c-0.3,1.8,0,3.7,0.5,5.3c0.5,1.3,0.8,2.7,1.6,4
	c0,0,0.1-0.1,0.1-0.1c0,0,0,0.1,0,0.1v0.3c1,1.9,2.1,3.5,3.7,5.1c3.7,3.7,8.3,5.8,13.6,6.1c4,0.2,8-0.6,11.7-2.7
	c1.1-0.8,2.1-1.3,3.2-2.4c1.6-1.6,2.7-2.9,3.7-4.2C52.2,38.7,52.7,33.9,51.9,28.8z M45.7,47.5c-0.3-0.3-0.6-0.6-0.9-0.9
	c0.4,0.3,0.7,0.6,1.1,0.9C45.8,47.5,45.8,47.5,45.7,47.5z"/>
</svg>
