<?xml version="1.0" encoding="utf-8"?>
<!-- Generator: Adobe Illustrator 25.3.1, SVG Export Plug-In . SVG Version: 6.00 Build 0)  -->
<svg version="1.1" id="Capa_1" xmlns="http://www.w3.org/2000/svg" xmlns:xlink="http://www.w3.org/1999/xlink" x="0px" y="0px"
	 viewBox="0 0 64 64" style="enable-background:new 0 0 64 64;" xml:space="preserve">
<style type="text/css">
	.st0{fill:none;}
	.st1{fill:#6956E7;}
</style>
<rect class="st0" width="64" height="64"/>
<g>
	<g>
		<path class="st1" d="M32,12.9C14.7,12.9,4.3,32,4.3,32S14.7,51.1,32,51.1S59.7,32,59.7,32S49.3,12.9,32,12.9z M50,39.1
			c-4.6,4.6-10.7,8.6-18,8.6s-13.5-4.1-18-8.6c-2-2.3-4.1-4.6-5.6-7.1l0,0c1.8-2.5,3.6-4.8,5.8-7.1c4.3-4.6,10.4-8.6,17.8-8.6
			s13.5,4.1,18,8.6c2,2.3,4.1,4.6,5.8,7.1c-0.3,0.3-0.5,0.8-0.8,1C53.9,34.5,52.1,36.8,50,39.1z"/>
		<path class="st1" d="M32,19.8c-6.6,0-12.2,5.3-12.2,12.2S25.1,44.2,32,44.2S44.2,38.9,44.2,32S38.6,19.8,32,19.8z M32,40.6
			c-4.8,0-8.6-3.8-8.6-8.6s3.8-8.6,8.6-8.6s8.6,3.8,8.6,8.6S36.8,40.6,32,40.6z"/>
	</g>
</g>
</svg>
